<svg width="891" height="253" viewBox="0 0 891 253" fill="none" xmlns="http://www.w3.org/2000/svg">
<path d="M16.3128 169.68C18.7661 169.68 21.0995 170.307 23.3128 171.56C25.3661 172.76 27.0195 174.427 28.2728 176.56C29.5261 178.693 30.1528 181.027 30.1528 183.56C30.1528 186.067 29.5261 188.387 28.2728 190.52C27.0728 192.573 25.4195 194.227 23.3128 195.48C21.1795 196.733 18.8461 197.36 16.3128 197.36C13.8061 197.36 11.4861 196.733 9.35281 195.48C7.21948 194.253 5.55281 192.6 4.35281 190.52C3.09948 188.387 2.47281 186.067 2.47281 183.56C2.47281 181.027 3.09948 178.693 4.35281 176.56C5.60615 174.427 7.27281 172.76 9.35281 171.56C11.5661 170.307 13.8861 169.68 16.3128 169.68ZM16.3128 172.12C13.1395 172.12 10.4461 173.227 8.23281 175.44C5.99281 177.733 4.87281 180.44 4.87281 183.56C4.87281 186.653 5.99281 189.347 8.23281 191.64C10.4995 193.853 13.1928 194.96 16.3128 194.96C19.4595 194.96 22.1661 193.853 24.4328 191.64C26.6461 189.373 27.7528 186.68 27.7528 183.56C27.7528 180.413 26.6461 177.707 24.4328 175.44C22.2195 173.227 19.5128 172.12 16.3128 172.12ZM10.2728 175.44H16.7528C18.4061 175.44 19.7661 175.96 20.8328 177C21.8995 178.04 22.4328 179.36 22.4328 180.96C22.4328 182.827 21.5795 184.187 19.8728 185.04L22.7128 190.44L21.1528 191.68H19.5128L16.4728 185.8H13.9928V191.68H10.2728V175.44ZM16.2728 178.28H13.9928V182.96H16.3528C17.0995 182.96 17.7395 182.72 18.2728 182.24C18.6728 181.787 18.8728 181.28 18.8728 180.72C18.8728 180.027 18.7128 179.48 18.3928 179.08C17.9928 178.547 17.2861 178.28 16.2728 178.28Z" fill="black"/>
<path d="M85.8875 96.56C88.4975 96.56 90.7208 97.4783 92.5575 99.315C94.3942 101.152 95.3125 103.375 95.3125 105.985C95.3125 108.595 94.3942 110.818 92.5575 112.655C90.7208 114.492 88.4975 115.41 85.8875 115.41C83.3742 115.41 81.1992 114.492 79.3625 112.655C77.5258 110.818 76.6075 108.595 76.6075 105.985C76.6075 103.375 77.5258 101.152 79.3625 99.315C81.1992 97.4783 83.3742 96.56 85.8875 96.56ZM135.187 98.3V150.21H142.437V165H135.042C134.269 176.407 129.967 185.107 122.137 191.1C114.791 196.803 105.414 199.655 94.0075 199.655H79.6525C67.2792 199.655 57.4192 196.465 50.0725 190.085C42.3392 183.318 38.4725 173.797 38.4725 161.52V135.565L47.4625 128.315H56.1625V159.925C56.1625 169.108 58.4342 175.537 62.9775 179.21C67.6175 182.98 75.5925 184.865 86.9025 184.865C97.8258 184.865 105.511 183.173 109.957 179.79C114.984 175.923 117.497 169.302 117.497 159.925V98.3H135.187ZM293.122 98.3V145.715V150.21H300.517V165H294.862L290.077 159.055H289.787C286.5 163.018 282.392 165 277.462 165H246.432L241.647 159.055H241.212C238.022 163.018 233.962 165 229.032 165H197.857L193.072 159.055H192.637C189.447 163.018 185.387 165 180.457 165H139.277V150.21H174.802C177.219 150.21 178.427 149.002 178.427 146.585V114.975H196.117V145.715C196.117 147.745 196.069 149.243 195.972 150.21H223.377C225.794 150.21 227.002 149.002 227.002 146.585V106.565H244.692V145.28C244.692 145.86 244.644 146.73 244.547 147.89C244.547 148.953 244.547 149.727 244.547 150.21H271.807C274.224 150.21 275.432 149.002 275.432 146.585V98.3H293.122ZM315.955 100.765C325.525 97.9617 333.887 96.56 341.04 96.56C352.737 96.56 362.162 100.233 369.315 107.58C375.792 114.25 379.03 122.563 379.03 132.52V149.05C379.03 153.013 377.677 156.59 374.97 159.78C371.78 163.26 367.913 165 363.37 165H296.67V150.21H357.715C360.132 150.21 361.34 149.002 361.34 146.585V133.535C361.34 126.768 359.117 121.452 354.67 117.585C350.32 113.718 344.278 111.785 336.545 111.785C332.098 111.785 325.235 112.8 315.955 114.83V100.765ZM448.733 165C438.1 165 429.738 161.375 423.648 154.125C418.525 147.938 415.963 140.302 415.963 131.215C415.963 120.388 419.008 111.93 425.098 105.84C431.478 99.6533 439.646 96.56 449.603 96.56C456.853 96.56 463.136 98.3483 468.453 101.925C475.413 106.952 478.893 114.105 478.893 123.385V150.21H483.533V165H478.748C478.071 175.44 474.398 183.608 467.728 189.505C463.088 193.662 457.53 196.513 451.053 198.06C446.51 199.123 442.063 199.655 437.713 199.655C436.263 199.655 434.185 199.558 431.478 199.365H431.043L423.648 190.23V183.85C427.611 184.527 431.333 184.865 434.813 184.865C450.666 184.865 459.318 178.243 460.768 165H448.733ZM461.203 123.385C461.203 119.518 459.946 116.473 457.433 114.25C455.21 112.317 452.6 111.35 449.603 111.35C444.673 111.35 440.758 113.09 437.858 116.57C434.958 120.05 433.508 124.835 433.508 130.925C433.508 136.822 435.103 141.51 438.293 144.99C441.483 148.47 445.833 150.21 451.343 150.21H461.203V123.385ZM523.202 98.3V149.05C523.202 152.82 521.945 156.3 519.432 159.49C516.242 163.163 512.278 165 507.542 165H479.557V150.21H501.887C502.95 150.21 503.868 149.823 504.642 149.05C505.318 148.373 505.657 147.552 505.657 146.585V98.3H523.202ZM511.167 175.585C513.777 175.585 516 176.503 517.837 178.34C519.673 180.177 520.592 182.4 520.592 185.01C520.592 187.62 519.673 189.843 517.837 191.68C516 193.517 513.777 194.435 511.167 194.435C508.557 194.435 506.333 193.517 504.497 191.68C502.757 189.843 501.887 187.62 501.887 185.01C501.887 182.4 502.757 180.177 504.497 178.34C506.333 176.503 508.557 175.585 511.167 175.585ZM558.029 61.18V161.375L549.039 168.625H540.339V61.18H558.029Z" fill="#252525"/>
<path d="M721 0C675.16 0 638 37.1604 638 83V170C638 198.96 652.832 224.456 675.314 239.306C676.946 240.384 679.121 239.534 679.728 237.674C680.897 234.094 682.199 230.59 683.633 227.162C690.976 209.286 700.284 194.18 711.556 181.843C712.622 180.676 712.647 178.884 711.543 177.753C706.977 173.076 700.877 167.749 693.242 161.77C685.588 155.476 680.247 151.145 677.219 148.776C676.483 148.2 676.046 147.319 676.046 146.384V123.668C676.046 109.938 680.092 97.7518 688.185 87.1106C698.975 73.0369 712.799 66 729.658 66C740.111 66 759.499 69.6043 787.822 76.8128C810.413 82.6482 826.935 86.5957 837.388 88.6553C848.178 90.3716 859.811 91.4014 872.286 91.7447L891 92.2596L872.509 141.798C872.071 142.971 870.952 143.752 869.7 143.794C867.6 143.866 864.416 144.022 860.148 144.264C854.079 144.264 846.155 145.122 836.376 146.838C826.598 148.211 816.483 150.614 806.03 154.047C781.668 161.755 759.716 173.064 740.176 187.972C739.302 188.638 738.875 189.735 739.041 190.822C739.53 194.022 739.774 196.352 739.774 197.813C739.774 201.589 739.268 204.678 738.256 207.081V207.081C737.775 208.796 735.626 208.823 734.924 207.186C734.705 206.673 734.466 206.123 734.21 205.536C733.396 203.672 732.521 202.057 731.584 200.693C730.634 199.31 728.69 199.306 727.557 200.543C720.018 208.773 713.469 219.019 707.91 231.281C705.578 236.727 703.72 242.259 702.337 247.876C701.947 249.461 702.944 251.047 704.544 251.369C709.863 252.439 715.366 253 721 253H808C853.84 253 891 215.84 891 170V92.2596V83C891 37.1604 853.84 0 808 0H721Z" fill="url(#paint0_linear_1198_44)"/>
<path d="M732.526 162.163C731.068 163.504 728.725 163.141 727.701 161.445C720.858 150.107 710.786 139.164 697.485 128.615C696.468 127.809 696.04 126.428 696.678 125.298C698.378 122.291 701.447 119.517 705.887 116.974C711.619 113.885 718.868 112.34 727.635 112.34C735.727 112.34 747.023 114.057 761.522 117.489C770.317 119.317 777.678 120.755 783.607 121.804C786.709 122.353 787.29 127.151 784.414 128.438C764.655 137.281 747.359 148.523 732.526 162.163Z" fill="url(#paint1_linear_1198_44)"/>
<defs>
<linearGradient id="paint0_linear_1198_44" x1="764.5" y1="0" x2="764.5" y2="253" gradientUnits="userSpaceOnUse">
<stop stop-color="#AAFF00"/>
<stop offset="1" stop-color="#00FFAA" stop-opacity="0.78"/>
</linearGradient>
<linearGradient id="paint1_linear_1198_44" x1="764.5" y1="0" x2="764.5" y2="253" gradientUnits="userSpaceOnUse">
<stop stop-color="#AAFF00"/>
<stop offset="1" stop-color="#00FFAA" stop-opacity="0.78"/>
</linearGradient>
</defs>
</svg>
