<svg width="253" height="253" viewBox="0 0 253 253" fill="none" xmlns="http://www.w3.org/2000/svg">
<path d="M83 0C37.1604 0 0 37.1604 0 83V170C0 198.96 14.8319 224.456 37.3139 239.306C38.9462 240.384 41.121 239.534 41.7281 237.674C42.8971 234.094 44.1986 230.59 45.6328 227.162C52.9758 209.286 62.2837 194.18 73.5564 181.843C74.6223 180.676 74.6466 178.884 73.5429 177.753C68.9769 173.076 62.8768 167.749 55.2425 161.77C47.5877 155.476 42.2466 151.145 39.2191 148.776C38.4825 148.2 38.0462 147.319 38.0462 146.384V123.668C38.0462 109.938 42.0924 97.7518 50.1848 87.1106C60.9746 73.0369 74.7991 66 91.6582 66C102.111 66 121.499 69.6043 149.822 76.8128C172.413 82.6482 188.935 86.5957 199.388 88.6553C210.178 90.3716 221.811 91.4014 234.286 91.7447L253 92.2596L234.509 141.798C234.071 142.971 232.952 143.752 231.7 143.794C229.6 143.866 226.416 144.022 222.148 144.264C216.079 144.264 208.155 145.122 198.376 146.838C188.598 148.211 178.483 150.614 168.03 154.047C143.668 161.755 121.716 173.064 102.176 187.972C101.302 188.638 100.875 189.735 101.041 190.822C101.53 194.022 101.774 196.352 101.774 197.813C101.774 201.589 101.268 204.678 100.256 207.081V207.081C99.775 208.796 97.6261 208.823 96.9243 207.186C96.7045 206.673 96.4665 206.123 96.2102 205.536C95.3962 203.672 94.5208 202.057 93.5839 200.693C92.6342 199.31 90.6904 199.306 89.5571 200.543C82.018 208.773 75.4689 219.019 69.9099 231.281C67.5779 236.727 65.7202 242.259 64.3369 247.876C63.9466 249.461 64.9437 251.047 66.5441 251.369C71.8631 252.439 77.366 253 83 253H170C215.84 253 253 215.84 253 170V92.2596V83C253 37.1604 215.84 0 170 0H83Z" fill="url(#paint0_linear_1305_63)"/>
<path d="M94.5259 162.163C93.0679 163.504 90.7249 163.141 89.7013 161.445C82.8578 150.107 72.7856 139.164 59.4847 128.615C58.4679 127.809 58.0399 126.428 58.6784 125.298C60.378 122.291 63.4474 119.517 67.8868 116.974C73.6189 113.885 80.8684 112.34 89.6351 112.34C97.7275 112.34 109.023 114.057 123.522 117.489C132.317 119.317 139.678 120.755 145.607 121.804C148.709 122.353 149.29 127.151 146.414 128.438C126.655 137.281 109.359 148.523 94.5259 162.163Z" fill="url(#paint1_linear_1305_63)"/>
<defs>
<linearGradient id="paint0_linear_1305_63" x1="126.5" y1="0" x2="126.5" y2="253" gradientUnits="userSpaceOnUse">
<stop stop-color="#AAFF00"/>
<stop offset="1" stop-color="#00FFAA" stop-opacity="0.78"/>
</linearGradient>
<linearGradient id="paint1_linear_1305_63" x1="126.5" y1="0" x2="126.5" y2="253" gradientUnits="userSpaceOnUse">
<stop stop-color="#AAFF00"/>
<stop offset="1" stop-color="#00FFAA" stop-opacity="0.78"/>
</linearGradient>
</defs>
</svg>
