<svg width="254" height="234" viewBox="0 0 254 234" fill="none" xmlns="http://www.w3.org/2000/svg">
<path d="M133.256 117.036H219.381ZM221.822 128.314L236.051 170.774C243.844 194.028 247.741 205.655 244.945 212.815C242.516 219.034 237.301 223.747 230.865 225.543C223.454 227.608 212.261 222.576 189.874 212.514L46.354 147.997C24.5026 138.174 13.5769 133.264 10.2007 126.441C7.26643 120.513 7.26643 113.557 10.2007 107.63C13.5769 100.808 24.5026 95.8966 46.354 86.0738L190.121 21.4471C212.441 11.4142 223.6 6.3976 231.004 8.45552C237.433 10.2427 242.649 14.9443 245.085 21.1509C247.891 28.2977 244.036 39.8998 236.326 63.1041L221.794 106.84C220.47 110.826 219.808 112.819 219.547 114.856C219.315 116.665 219.317 118.496 219.554 120.304C219.82 122.341 220.488 124.331 221.822 128.314Z" fill="#7C8B95"/>
<path d="M133.256 117.036H219.381M221.822 128.314L236.051 170.774C243.844 194.028 247.741 205.655 244.945 212.815C242.516 219.034 237.301 223.747 230.865 225.543C223.454 227.608 212.261 222.576 189.874 212.514L46.354 147.997C24.5026 138.174 13.5769 133.264 10.2007 126.441C7.26643 120.513 7.26643 113.557 10.2007 107.63C13.5769 100.808 24.5026 95.8966 46.354 86.0738L190.121 21.4471C212.441 11.4142 223.6 6.3976 231.004 8.45552C237.433 10.2427 242.649 14.9443 245.085 21.1509C247.891 28.2977 244.036 39.8998 236.326 63.1041L221.794 106.84C220.47 110.826 219.808 112.819 219.547 114.856C219.315 116.665 219.317 118.496 219.554 120.304C219.82 122.341 220.488 124.331 221.822 128.314Z" stroke="#202C33" stroke-width="15" stroke-linecap="round" stroke-linejoin="round"/>
</svg>
