<svg width="473" height="490" viewBox="0 0 473 490" fill="none" xmlns="http://www.w3.org/2000/svg">
<path d="M107.872 151.014C110.328 131.587 135.565 105.182 155.594 108.112L155.562 108.08C175.054 111.786 190.484 145.349 199.185 160.441C205.349 171.391 201.346 182.485 195.596 187.167C187.839 193.422 175.709 202.052 178.254 210.717C182.779 226.122 236.498 279.865 262.919 295.143C272.92 300.926 280.172 285.674 286.365 277.86C290.864 271.849 301.963 268.257 312.883 274.19C329.192 283.692 344.556 294.735 358.763 307.167C365.859 313.1 367.524 321.868 362.608 331.136C353.948 347.459 328.902 368.984 310.721 364.609C278.967 356.971 150.547 307.167 109.298 162.878C106.978 156.052 107.562 153.471 107.872 151.014Z" fill="#0F0F0F"/>
<path fill-rule="evenodd" clip-rule="evenodd" d="M236.498 473.339C210.206 473.339 195.658 470.517 172.035 462.591L126.791 485.223C98.2163 499.517 64.5961 478.729 64.5961 446.767V398.099C18.3233 354.933 0.132812 305.161 0.132812 236.871C0.132812 106.273 105.957 0.402344 236.498 0.402344C367.038 0.402344 472.863 106.273 472.863 236.871C472.863 367.468 367.038 473.339 236.498 473.339ZM107.572 379.403L93.9043 366.653C57.9536 333.118 43.1083 295.625 43.1083 236.871C43.1083 130.018 129.692 43.3966 236.498 43.3966C343.305 43.3966 429.888 130.018 429.888 236.871C429.888 343.725 343.305 430.345 236.498 430.345C215.318 430.345 205.384 428.432 185.7 421.828L168.779 416.151L107.572 446.767V379.403Z" fill="#0F0F0F"/>
</svg>
